<svg width="139" height="36" viewBox="0 0 139 36" fill="none" xmlns="http://www.w3.org/2000/svg">
<g clip-path="url(#clip0_91_1027)">
<path d="M90.8698 11.5442H95.8194V16.5621H90.8698V27.5711C90.8698 29.6661 91.8012 30.5425 93.9083 30.5425C94.566 30.5306 95.2216 30.4655 95.8687 30.3478V35.0245C94.756 35.4307 93.5732 35.6128 92.3891 35.5604C87.978 35.5604 85.2338 32.9296 85.2338 28.497V16.5626H80.8228V11.5442H82.0481C84.5963 11.5442 85.7237 9.93672 85.7237 7.84229V4.28613H90.8693L90.8698 11.5442Z" fill="#231815"/>
<path d="M139 17.1468C138.384 17.0517 137.761 17.003 137.138 17.0009C132.726 17.0009 130.717 19.5338 130.717 23.9669V35.2686H125.033V11.5441H130.572V15.344C131.701 12.7621 134.346 11.252 137.483 11.252C137.993 11.2532 138.501 11.3022 139.002 11.3983L139 17.1468Z" fill="#231815"/>
<path d="M116.084 27.52C115.216 29.593 113.472 31.1281 110.307 31.1281C108.619 31.1624 106.986 30.5309 105.764 29.3716C104.543 28.2124 103.833 26.6197 103.79 24.9417H121.237C121.351 24.3478 121.4 23.7433 121.383 23.1389C121.383 15.6371 117.071 10.8145 109.72 10.8145C103.691 10.8145 98.1045 15.7834 98.1045 23.2852C98.1045 31.3229 103.838 35.9997 110.307 35.9997C115.972 35.9997 119.722 32.7183 121.04 28.6467L116.084 27.52ZM109.768 15.5387C113.689 15.5387 115.551 18.0231 115.649 20.7997H103.936C104.048 19.3482 104.715 17.9943 105.799 17.016C106.884 16.0378 108.304 15.5095 109.768 15.5397V15.5387Z" fill="#231815"/>
<path d="M56.3634 31.4692V19.6806C56.3634 14.9549 53.5701 10.8145 46.2189 10.8145C40.3717 10.8145 36.6597 14.4247 36.1822 18.4871L41.376 19.6674C41.6437 17.3094 43.305 15.4423 46.2682 15.4423C49.4046 15.4423 50.7767 17.0498 50.7767 19.0469C50.7767 19.8754 50.3848 20.5576 49.0128 20.7523L42.8865 21.6777C38.8191 22.2625 35.6826 24.6006 35.6826 28.8384C35.6826 32.5899 38.7698 35.9997 43.7687 35.9997C47.6402 35.9997 49.9924 34.0511 51.1198 32.2488C51.0844 33.2616 51.1667 34.275 51.365 35.2691H56.6578C56.4466 34.0136 56.3481 32.742 56.3634 31.4692ZM50.7767 25.4286C50.7767 30.0564 48.0321 31.5666 44.8469 31.5666C42.59 31.5666 41.3673 30.1054 41.3673 28.4979C41.3673 26.5492 42.7885 25.5749 44.553 25.2823L50.7767 24.3569V25.4286Z" fill="#231815"/>
<path d="M71.695 21.1908L68.0687 20.4602C66.5982 20.168 65.6673 19.2427 65.6673 17.9757C65.6673 16.5145 67.0886 15.2481 69.0977 15.2481C72.0162 15.2481 73.122 17.086 73.438 18.4432L78.2927 17.3405C77.8573 14.9819 75.6702 10.8145 69.0977 10.8145C64.148 10.8145 60.3268 14.3217 60.3268 18.4621C60.3268 21.7251 62.5323 24.4538 66.7469 25.3797L70.2753 26.1587C72.187 26.5487 73.0686 27.523 73.0686 28.7895C73.0686 30.2507 71.8438 31.5177 69.491 31.5177C66.5797 31.5177 64.9774 29.772 64.6752 27.7407L59.6943 28.8726C60.0067 31.5554 62.659 35.9992 69.5423 35.9992C75.6194 35.9992 78.5599 32.0046 78.5599 28.3995C78.5564 24.8933 76.2041 22.1651 71.695 21.1908Z" fill="#231815"/>
<path d="M27.6042 23.6135C26.2275 27.1956 22.9679 30.3974 17.5448 30.3974C11.615 30.3974 6.02827 26.1107 6.02827 18.0241C6.02827 9.6453 11.7622 5.50436 17.4961 5.50436C23.0392 5.50436 26.2341 8.54148 27.4205 12.4382L33.1139 11.1447C31.5269 5.1286 26.2895 -0.00195312 17.4966 -0.00195312C8.47899 -0.00195312 0.000488281 6.76927 0.000488281 18.0225C0.000488281 29.2758 8.18507 35.9981 17.5453 35.9981C26.25 35.9981 31.5064 30.6029 33.1821 24.8774L27.6042 23.6135Z" fill="#231815"/>
</g>
<defs>
<clipPath id="clip0_91_1027">
<rect width="139" height="36" fill="white"/>
</clipPath>
</defs>
</svg>
